<svg width="120" height="45" viewBox="0 0 120 45" fill="none" xmlns="http://www.w3.org/2000/svg">
<g clip-path="url(#clip0_21_440)">
<path d="M69.8408 3.64651V0L81.6646 4.83721V7.81395L69.8408 12.6512V8.93023L76.7441 6.32558L69.8408 3.64651Z" fill="#A100FF"/>
<path d="M4.55324 32C2.0563 32 0 30.7349 0 27.907V27.7582C0 24.3349 2.93758 23.1442 6.53611 23.1442H8.22521V22.4744C8.22521 21.0605 7.6377 20.2419 6.16891 20.2419C4.847 20.2419 4.18605 20.9861 4.11261 22.0279H0.440636C0.734394 18.9023 3.15789 17.414 6.38923 17.414C9.694 17.414 12.1175 18.8279 12.1175 22.3256V31.7023H8.37209V30.0651C7.6377 31.107 6.38923 32 4.55324 32ZM8.22521 27.0884V25.7489H6.68299C4.77356 25.7489 3.81885 26.2698 3.81885 27.5349V27.6837C3.81885 28.6512 4.40636 29.321 5.72827 29.321C7.05018 29.2465 8.22521 28.5023 8.22521 27.0884ZM20.8568 32C17.0379 32 14.2472 29.6186 14.2472 24.8558V24.6326C14.2472 19.8698 17.1848 17.3396 20.8568 17.3396C24.0147 17.3396 26.5851 18.9768 26.8788 22.6233H23.2069C22.9865 21.2837 22.2521 20.3907 20.9302 20.3907C19.3146 20.3907 18.1395 21.7303 18.1395 24.4837V24.9303C18.1395 27.7582 19.1677 29.0233 20.9302 29.0233C22.2521 29.0233 23.2069 28.0558 23.4272 26.493H26.9523C26.7319 29.7675 24.6022 32 20.8568 32ZM35.2509 32C31.4321 32 28.6414 29.6186 28.6414 24.8558V24.6326C28.6414 19.8698 31.5789 17.3396 35.2509 17.3396C38.4088 17.3396 40.9792 18.9768 41.2729 22.6233H37.601C37.3807 21.2837 36.6463 20.3907 35.3244 20.3907C33.7087 20.3907 32.5337 21.7303 32.5337 24.4837V24.9303C32.5337 27.7582 33.5618 29.0233 35.3244 29.0233C36.6463 29.0233 37.601 28.0558 37.8213 26.493H41.3464C41.1261 29.7675 38.9963 32 35.2509 32ZM49.7185 32C45.7528 32 43.0355 29.6186 43.0355 24.9303V24.6326C43.0355 19.9442 45.8996 17.3396 49.645 17.3396C53.0967 17.3396 55.9608 19.2744 55.9608 23.9628V25.6744H46.9278C47.0747 28.2047 48.1763 29.1721 49.7919 29.1721C51.2607 29.1721 52.0685 28.3535 52.3623 27.3861H55.9608C55.5202 29.9907 53.317 32 49.7185 32ZM47.0012 23.0698H52.142C52.0685 20.9861 51.1138 20.093 49.5716 20.093C48.3966 20.1675 47.295 20.8372 47.0012 23.0698ZM58.3109 17.7116H62.2032V19.7954C62.8641 18.4558 64.2595 17.414 66.3892 17.414C68.8862 17.414 70.5753 18.9768 70.5753 22.3256V31.7023H66.683V22.9209C66.683 21.2837 66.022 20.5396 64.6267 20.5396C63.3048 20.5396 62.2032 21.3582 62.2032 23.1442V31.7023H58.3109V17.7116ZM77.6989 13.4698V17.7116H80.3427V20.614H77.6989V27.2372C77.6989 28.2791 78.1395 28.8 79.0942 28.8C79.6818 28.8 80.049 28.7256 80.4162 28.5768V31.6279C79.9755 31.7768 79.1677 31.9256 78.213 31.9256C75.202 31.9256 73.8066 30.5116 73.8066 27.6837V20.614H72.1909V17.7116H73.8066V15.107L77.6989 13.4698ZM94.8837 31.7023H91.0649V29.6186C90.4039 30.9582 89.082 32 87.0257 32C84.5288 32 82.6928 30.4372 82.6928 27.1628V17.7116H86.5851V26.6419C86.5851 28.2791 87.246 29.0233 88.5679 29.0233C89.8898 29.0233 90.9914 28.1303 90.9914 26.4186V17.7116H94.8837V31.7023ZM97.7479 17.7116H101.64V20.3163C102.448 18.4558 103.77 17.5628 105.826 17.5628V21.4326C103.182 21.4326 101.64 22.2512 101.64 24.5582V31.7768H97.7479V17.7116ZM113.684 32C109.718 32 107.001 29.6186 107.001 24.9303V24.6326C107.001 19.9442 109.865 17.3396 113.611 17.3396C117.062 17.3396 119.927 19.2744 119.927 23.9628V25.6744H110.967C111.114 28.2047 112.215 29.1721 113.831 29.1721C115.3 29.1721 116.108 28.3535 116.401 27.3861H120C119.412 29.9907 117.283 32 113.684 32ZM110.894 23.0698H116.108C116.034 20.9861 115.08 20.093 113.537 20.093C112.362 20.1675 111.261 20.8372 110.894 23.0698Z" fill="#E5E5E5"/>
</g>
<defs>
<clipPath id="clip0_21_440">
<rect width="120" height="32" fill="white"/>
</clipPath>
</defs>
</svg>
