<svg width="33" height="21" viewBox="0 0 33 21" fill="none" xmlns="http://www.w3.org/2000/svg">
<path d="M24.5119 0.0019712L26.8097 0L26.8114 13.1324C25.9517 14.2849 24.7899 15.2164 23.5948 15.9957C23.899 15.4857 24.0932 15.15 24.275 14.5663C24.6995 13.2039 24.5554 11.7277 23.876 10.473C23.27 9.33527 22.2367 8.48523 21.0038 8.11007C19.7939 7.76391 18.4962 7.91305 17.3963 8.52461C16.7444 8.88912 16.1848 9.39839 15.7611 10.0132C14.2431 12.1772 15.2299 13.6086 14.5485 15.6789C12.4831 21.9534 4.05986 22.4527 0.985989 16.7458C-0.0656224 14.7478 -0.286003 12.4154 0.37284 10.2557C0.953022 8.30044 2.28368 6.65451 4.07382 5.67783C5.8257 4.73473 7.8829 4.53513 9.78336 5.12389C11.3977 5.63295 12.4815 6.50443 13.5383 7.78781C12.8683 8.63289 12.6634 9.07896 12.2426 10.0552C12.1715 9.88786 12.0908 9.72476 12.001 9.56666C11.3281 8.39867 10.0985 7.52903 8.79936 7.20242C7.47585 6.87822 6.07757 7.09902 4.91831 7.81532C3.42097 8.73017 2.74986 9.98616 2.35877 11.6253L10.0423 11.63L10.0507 13.9029L2.36464 13.9011C2.97545 16.5912 4.9363 18.5876 7.82292 18.4571C8.81065 18.4099 9.76357 18.0774 10.5663 17.4998C11.7989 16.6132 12.4369 15.4473 12.5294 13.9284C12.5701 13.2592 12.5356 12.6311 12.6218 11.9565C12.8169 10.4884 13.4511 9.11366 14.4412 8.01251C15.7 6.60134 17.4727 5.7547 19.3612 5.66255C21.3725 5.57012 23.0417 6.27472 24.5107 7.61654L24.5119 0.0019712Z" fill="#E1B6FF"/>
<path d="M29.953 8.04278L32.2254 8.03473L32.2307 20.3314L29.9534 20.3343C29.9932 18.3119 29.9431 16.1493 29.9431 14.1112C29.6652 14.5108 29.3684 14.897 29.0535 15.2683C26.8743 17.8273 23.7123 20.0441 20.2781 20.3171C20.1135 20.3399 19.7485 20.3435 19.5724 20.337C17.4864 20.26 15.8167 19.4087 14.4092 17.9232C14.9738 17.1869 15.2427 16.3148 15.4431 15.4273C15.5375 15.5999 15.641 15.7675 15.7522 15.9296C16.4662 16.9783 17.5948 17.755 18.8473 17.9875C20.781 18.3464 22.9343 17.4642 24.5075 16.3913C26.8263 14.8096 28.6778 12.5227 29.5383 9.83427C29.7334 9.22605 29.836 8.67112 29.953 8.04278Z" fill="#E1B6FF"/>
<path d="M29.9453 3.40847L32.2279 3.40802V5.71305L29.9424 5.71338L29.9453 3.40847Z" fill="#E1B6FF"/>
</svg>
